<svg width="25" height="331" xmlns="http://www.w3.org/2000/svg" xmlns:xlink="http://www.w3.org/1999/xlink" overflow="hidden"><defs><clipPath id="clip0"><path d="M100 273 125 273 125 604 100 604Z" fill-rule="evenodd" clip-rule="evenodd"/></clipPath></defs><g clip-path="url(#clip0)" transform="translate(-100 -273)"><path d="M2-6.62796e-07 2 12-2 12-2 6.62796e-07ZM2.00001 16 2.00001 28-1.99999 28-1.99999 16ZM2.00001 32 2.00001 44-1.99999 44-1.99999 32ZM2.00002 48 2.00002 60-1.99998 60-1.99998 48ZM2.00002 64 2.00003 76-1.99997 76-1.99998 64ZM2.00003 80 2.00003 92-1.99997 92-1.99997 80ZM2.00003 96 2.00004 108-1.99996 108-1.99997 96ZM2.00004 112 2.00004 124-1.99996 124-1.99996 112ZM2.00004 128 2.00005 140-1.99995 140-1.99996 128ZM2.00005 144 2.00005 156-1.99995 156-1.99995 144ZM2.00005 160 2.00006 172-1.99994 172-1.99995 160ZM2.00006 176 2.00006 188-1.99994 188-1.99994 176ZM2.00006 192 2.00007 204-1.99993 204-1.99994 192ZM2.00007 208 2.00007 220-1.99993 220-1.99993 208ZM2.00007 224 2.00008 236-1.99992 236-1.99993 224ZM2.00008 240 2.00008 252-1.99992 252-1.99992 240ZM2.00008 256 2.00009 268-1.99991 268-1.99992 256ZM2.00009 272 2.00009 284-1.99991 284-1.99991 272ZM2.0001 288 2.0001 300-1.9999 300-1.9999 288ZM2.0001 304 2.0001 306.801-1.9999 306.801-1.9999 304ZM6.0001 304.8 0.000104987 316.8-5.9999 304.8Z" transform="matrix(1 0 0 -1 112 602.8)"/></g></svg>